HIERARCHY
ROOT mixamorig:Hips
{
	OFFSET 0.000000 102.625267 -0.521241
	CHANNELS 6 Xposition Yposition Zposition Xrotation Yrotation Zrotation
	JOINT mixamorig:Spine
	{
		OFFSET 0.000000 5.645721 -0.031929
		CHANNELS 3 Xrotation Yrotation Zrotation
		JOINT mixamorig:Spine1
		{
			OFFSET 0.000000 6.586685 -0.037251
			CHANNELS 3 Xrotation Yrotation Zrotation
			JOINT mixamorig:Spine2
			{
				OFFSET 0.000000 7.527618 -0.042572
				CHANNELS 3 Xrotation Yrotation Zrotation
				JOINT mixamorig:Neck
				{
					OFFSET 0.000000 8.468590 -0.047894
					CHANNELS 3 Xrotation Yrotation Zrotation
					JOINT mixamorig:Head
					{
						OFFSET 0.000000 5.998901 -1.158958
						CHANNELS 3 Xrotation Yrotation Zrotation
						JOINT mixamorig:HeadTop_End
						{
							OFFSET 0.000000 21.748810 -4.201760
							CHANNELS 3 Xrotation Yrotation Zrotation
							End Site
							{
								OFFSET 0.000000 22.150970 0.000000
							}
						}
					}
				}
				JOINT mixamorig:LeftShoulder
				{
					OFFSET 3.414614 7.343132 -0.058928
					CHANNELS 3 Xrotation Yrotation Zrotation
					JOINT mixamorig:LeftArm
					{
						OFFSET 6.829548 -2.246910 -0.022071
						CHANNELS 3 Xrotation Yrotation Zrotation
						JOINT mixamorig:LeftForeArm
						{
							OFFSET 24.198503 -0.424179 0.257802
							CHANNELS 3 Xrotation Yrotation Zrotation
							JOINT mixamorig:LeftHand
							{
								OFFSET 21.584717 -0.002335 0.669575
								CHANNELS 3 Xrotation Yrotation Zrotation
								JOINT mixamorig:LeftHandThumb1
								{
									OFFSET 2.193897 -1.259628 1.956942
									CHANNELS 3 Xrotation Yrotation Zrotation
									JOINT mixamorig:LeftHandThumb2
									{
										OFFSET 1.755203 -1.007660 1.565605
										CHANNELS 3 Xrotation Yrotation Zrotation
										JOINT mixamorig:LeftHandThumb3
										{
											OFFSET 2.535126 -0.998764 1.490660
											CHANNELS 3 Xrotation Yrotation Zrotation
											JOINT mixamorig:LeftHandThumb4
											{
												OFFSET 2.398251 -0.721657 1.023775
												CHANNELS 3 Xrotation Yrotation Zrotation
												End Site
												{
													OFFSET 2.205696 -0.773872 1.362551
												}
											}
										}
									}
								}
								JOINT mixamorig:LeftHandIndex1
								{
									OFFSET 7.166248 -0.069405 2.369028
									CHANNELS 3 Xrotation Yrotation Zrotation
									JOINT mixamorig:LeftHandIndex2
									{
										OFFSET 2.989986 -0.015724 0.245918
										CHANNELS 3 Xrotation Yrotation Zrotation
										JOINT mixamorig:LeftHandIndex3
										{
											OFFSET 2.739197 -0.058952 0.219132
											CHANNELS 3 Xrotation Yrotation Zrotation
											JOINT mixamorig:LeftHandIndex4
											{
												OFFSET 2.326500 -0.032570 0.188458
												CHANNELS 3 Xrotation Yrotation Zrotation
												End Site
												{
													OFFSET 2.326485 -0.032578 0.188548
												}
											}
										}
									}
								}
								JOINT mixamorig:LeftHandMiddle1
								{
									OFFSET 7.394897 0.286369 0.654762
									CHANNELS 3 Xrotation Yrotation Zrotation
									JOINT mixamorig:LeftHandMiddle2
									{
										OFFSET 3.376106 0.152466 -0.003692
										CHANNELS 3 Xrotation Yrotation Zrotation
										JOINT mixamorig:LeftHandMiddle3
										{
											OFFSET 3.185104 -0.185410 -0.047914
											CHANNELS 3 Xrotation Yrotation Zrotation
											JOINT mixamorig:LeftHandMiddle4
											{
												OFFSET 2.742905 0.223846 0.010354
												CHANNELS 3 Xrotation Yrotation Zrotation
												End Site
												{
													OFFSET 2.742889 0.224251 0.006757
												}
											}
										}
									}
								}
								JOINT mixamorig:LeftHandRing1
								{
									OFFSET 7.508747 0.282753 -1.072900
									CHANNELS 3 Xrotation Yrotation Zrotation
									JOINT mixamorig:LeftHandRing2
									{
										OFFSET 2.821857 0.317802 -0.177266
										CHANNELS 3 Xrotation Yrotation Zrotation
										JOINT mixamorig:LeftHandRing3
										{
											OFFSET 2.672325 0.088310 -0.196165
											CHANNELS 3 Xrotation Yrotation Zrotation
											JOINT mixamorig:LeftHandRing4
											{
												OFFSET 2.272652 -0.053627 -0.183955
												CHANNELS 3 Xrotation Yrotation Zrotation
												End Site
												{
													OFFSET 2.272919 -0.054016 -0.180438
												}
											}
										}
									}
								}
								JOINT mixamorig:LeftHandPinky1
								{
									OFFSET 7.285820 0.522377 -2.660948
									CHANNELS 3 Xrotation Yrotation Zrotation
									JOINT mixamorig:LeftHandPinky2
									{
										OFFSET 2.466278 0.082008 -0.249570
										CHANNELS 3 Xrotation Yrotation Zrotation
										JOINT mixamorig:LeftHandPinky3
										{
											OFFSET 1.940475 0.021858 -0.202004
											CHANNELS 3 Xrotation Yrotation Zrotation
											JOINT mixamorig:LeftHandPinky4
											{
												OFFSET 1.645287 0.153595 -0.153405
												CHANNELS 3 Xrotation Yrotation Zrotation
												End Site
												{
													OFFSET 1.645088 0.153801 -0.155289
												}
											}
										}
									}
								}
							}
						}
					}
				}
				JOINT mixamorig:RightShoulder
				{
					OFFSET -3.414604 7.343132 -0.036860
					CHANNELS 3 Xrotation Yrotation Zrotation
					JOINT mixamorig:RightArm
					{
						OFFSET -6.829551 -2.246986 0.022068
						CHANNELS 3 Xrotation Yrotation Zrotation
						JOINT mixamorig:RightForeArm
						{
							OFFSET -24.198494 -0.424141 0.158696
							CHANNELS 3 Xrotation Yrotation Zrotation
							JOINT mixamorig:RightHand
							{
								OFFSET -21.584698 -0.002243 0.686977
								CHANNELS 3 Xrotation Yrotation Zrotation
								JOINT mixamorig:RightHandThumb1
								{
									OFFSET -2.242882 -1.296806 1.978855
									CHANNELS 3 Xrotation Yrotation Zrotation
									JOINT mixamorig:RightHandThumb2
									{
										OFFSET -1.794239 -1.037361 1.583064
										CHANNELS 3 Xrotation Yrotation Zrotation
										JOINT mixamorig:RightHandThumb3
										{
											OFFSET -2.504150 -0.962166 1.471556
											CHANNELS 3 Xrotation Yrotation Zrotation
											JOINT mixamorig:RightHandThumb4
											{
												OFFSET -2.346046 -0.743172 0.992235
												CHANNELS 3 Xrotation Yrotation Zrotation
												End Site
												{
													OFFSET -2.157112 -0.792709 1.326359
												}
											}
										}
									}
								}
								JOINT mixamorig:RightHandIndex1
								{
									OFFSET -7.174488 -0.001839 2.366265
									CHANNELS 3 Xrotation Yrotation Zrotation
									JOINT mixamorig:RightHandIndex2
									{
										OFFSET -2.935219 -0.016853 0.287245
										CHANNELS 3 Xrotation Yrotation Zrotation
										JOINT mixamorig:RightHandIndex3
										{
											OFFSET -2.786827 -0.129890 0.255971
											CHANNELS 3 Xrotation Yrotation Zrotation
											JOINT mixamorig:RightHandIndex4
											{
												OFFSET -2.343559 0.168816 0.256164
												CHANNELS 3 Xrotation Yrotation Zrotation
												End Site
												{
													OFFSET -2.344208 0.169510 0.249690
												}
											}
										}
									}
								}
								JOINT mixamorig:RightHandMiddle1
								{
									OFFSET -7.274693 0.327965 0.656181
									CHANNELS 3 Xrotation Yrotation Zrotation
									JOINT mixamorig:RightHandMiddle2
									{
										OFFSET -3.309677 0.091591 0.032863
										CHANNELS 3 Xrotation Yrotation Zrotation
										JOINT mixamorig:RightHandMiddle3
										{
											OFFSET -3.186844 -0.122513 0.000971
											CHANNELS 3 Xrotation Yrotation Zrotation
											JOINT mixamorig:RightHandMiddle4
											{
												OFFSET -2.671951 -0.322540 -0.031001
												CHANNELS 3 Xrotation Yrotation Zrotation
												End Site
												{
													OFFSET -2.671928 -0.323486 -0.021820
												}
											}
										}
									}
								}
								JOINT mixamorig:RightHandRing1
								{
									OFFSET -7.453640 0.430428 -1.170334
									CHANNELS 3 Xrotation Yrotation Zrotation
									JOINT mixamorig:RightHandRing2
									{
										OFFSET -2.808174 0.165817 -0.117934
										CHANNELS 3 Xrotation Yrotation Zrotation
										JOINT mixamorig:RightHandRing3
										{
											OFFSET -2.730080 0.127754 -0.119542
											CHANNELS 3 Xrotation Yrotation Zrotation
											JOINT mixamorig:RightHandRing4
											{
												OFFSET -2.349426 0.078133 -0.107466
												CHANNELS 3 Xrotation Yrotation Zrotation
												End Site
												{
													OFFSET -2.349503 0.077988 -0.106043
												}
											}
										}
									}
								}
								JOINT mixamorig:RightHandPinky1
								{
									OFFSET -7.364456 0.463486 -2.604800
									CHANNELS 3 Xrotation Yrotation Zrotation
									JOINT mixamorig:RightHandPinky2
									{
										OFFSET -2.430134 0.174614 -0.251330
										CHANNELS 3 Xrotation Yrotation Zrotation
										JOINT mixamorig:RightHandPinky3
										{
											OFFSET -1.953583 0.007492 -0.220999
											CHANNELS 3 Xrotation Yrotation Zrotation
											JOINT mixamorig:RightHandPinky4
											{
												OFFSET -1.582039 0.276558 -0.139972
												CHANNELS 3 Xrotation Yrotation Zrotation
												End Site
												{
													OFFSET -1.581284 0.277252 -0.147002
												}
											}
										}
									}
								}
							}
						}
					}
				}
			}
		}
	}
	JOINT mixamorig:LeftUpLeg
	{
		OFFSET 6.620181 -8.816864 -0.447179
		CHANNELS 3 Xrotation Yrotation Zrotation
		JOINT mixamorig:LeftLeg
		{
			OFFSET 2.748989 -36.076775 0.650871
			CHANNELS 3 Xrotation Yrotation Zrotation
			JOINT mixamorig:LeftFoot
			{
				OFFSET 1.089303 -46.239017 1.019056
				CHANNELS 3 Xrotation Yrotation Zrotation
				JOINT mixamorig:LeftToeBase
				{
					OFFSET -0.371088 -10.380511 12.650617
					CHANNELS 3 Xrotation Yrotation Zrotation
					JOINT mixamorig:LeftToe_End
					{
						OFFSET -0.094684 -0.116785 6.663326
						CHANNELS 3 Xrotation Yrotation Zrotation
						End Site
						{
							OFFSET -0.094684 -0.116785 6.663326
						}
					}
				}
			}
		}
	}
	JOINT mixamorig:RightUpLeg
	{
		OFFSET -6.620174 -8.816818 -0.447182
		CHANNELS 3 Xrotation Yrotation Zrotation
		JOINT mixamorig:RightLeg
		{
			OFFSET -2.748991 -36.076790 0.753614
			CHANNELS 3 Xrotation Yrotation Zrotation
			JOINT mixamorig:RightFoot
			{
				OFFSET -1.089311 -46.239029 0.372114
				CHANNELS 3 Xrotation Yrotation Zrotation
				JOINT mixamorig:RightToeBase
				{
					OFFSET 0.371103 -10.380659 13.284531
					CHANNELS 3 Xrotation Yrotation Zrotation
					JOINT mixamorig:RightToe_End
					{
						OFFSET 0.094689 -0.116865 6.675873
						CHANNELS 3 Xrotation Yrotation Zrotation
						End Site
						{
							OFFSET 0.094687 -0.116865 6.675871
						}
					}
				}
			}
		}
	}
}
MOTION
Frames: 4
Frame Time: 0.016667
0.026787 99.256638 -0.227760 -12.056537 -0.913828 -5.023857 4.808965 1.406800 -1.242344 5.735314 1.866936 0.400397 5.754390 1.803570 0.381924 0.687357 0.021291 3.402452 2.149338 5.648724 0.270854 0.000001 0.000001 0.000000 -0.180975 11.564678 -10.192938 8.013245 -22.157006 -57.522385 -1.888179 -62.512958 -2.133946 3.426775 4.379219 6.213950 5.476377 27.889382 14.956957 -2.690573 -8.505223 -8.371473 -8.743832 -16.202496 6.365014 -0.000002 0.000000 -0.000000 5.498939 4.257167 -12.472134 8.547039 7.761485 -52.669754 9.070497 7.816792 -55.205106 0.000001 -0.000005 -0.000000 1.192932 2.646320 -26.682508 3.553175 9.039413 -46.362692 8.050866 11.341130 -75.199707 -0.000002 -0.000003 0.000002 1.292120 3.351301 -45.353091 0.341741 10.259213 -47.775514 2.068274 12.388586 -60.943080 0.000000 -0.000001 -0.000001 -14.434937 7.520259 -37.691391 1.602289 14.591253 -67.178121 2.187667 15.341151 -72.952622 -0.000000 0.000001 0.000001 0.030452 2.412985 20.349936 -23.070467 19.157789 52.644851 2.156749 114.564395 -2.384184 13.399875 10.334985 17.620172 18.801518 -27.814000 2.067372 4.047010 -2.321577 2.496550 -1.590744 -18.346105 -21.380201 -0.000002 -0.000002 -0.000000 11.434319 5.996840 10.172984 5.685403 -5.050685 38.299312 8.302944 -5.597142 52.693120 -0.000002 -0.000000 -0.000001 -0.236916 1.938813 19.742184 3.228125 -6.983744 45.582931 4.895550 -8.082813 56.950466 0.000001 0.000001 0.000000 1.167340 -1.899928 32.332941 1.162818 -8.407661 49.951557 1.443377 -8.790656 52.640821 -0.000004 0.000001 0.000001 -12.815869 -7.975890 34.536414 -1.183025 -10.939070 57.063403 -0.590540 -12.249353 65.520079 -0.000001 0.000001 -0.000001 -7.291598 11.567569 14.041077 34.621741 0.704752 9.305114 -19.240209 0.633438 -3.798871 0.005645 0.000003 0.000007 -0.000000 -0.000001 0.000000 6.097767 -2.298676 3.988337 26.990061 -0.548139 2.334648 -18.916445 0.806707 -2.125473 -1.744493 -0.000504 0.160789 0.000000 -0.000000 0.000000 
0.293028 99.733170 -0.138528 -10.565900 -2.638766 -5.314395 3.621852 1.526860 -0.705201 5.329785 2.129133 0.339768 5.358720 2.044450 0.343046 0.123528 -0.061957 3.752122 0.793248 5.757806 0.599809 -0.000000 0.000000 -0.000000 -0.346456 12.775929 -8.503528 11.658185 -24.541440 -56.252854 -1.854329 -62.089063 -2.104098 4.395649 6.757284 6.041427 5.476363 27.889387 14.956967 -2.690564 -8.505219 -8.371477 -8.743834 -16.202486 6.365008 -0.000002 -0.000002 -0.000000 5.500740 4.258970 -12.488376 8.550621 7.762500 -52.686338 9.074100 7.817631 -55.221598 -0.000001 0.000001 -0.000002 1.194276 2.649387 -26.698653 3.555618 9.041766 -46.379249 8.054107 11.342187 -75.216434 0.000001 -0.000000 0.000000 1.293635 3.354318 -45.369064 0.343309 10.262336 -47.791892 2.070495 12.391160 -60.959411 -0.000001 0.000000 -0.000002 -14.435091 7.524188 -37.707620 1.604748 14.594089 -67.194732 2.190386 15.343837 -72.969397 0.000001 0.000000 0.000000 0.001066 2.512934 20.898398 -23.695016 19.712252 52.680040 2.102007 115.124109 -2.334691 12.297666 10.674819 17.497608 18.801521 -27.813987 2.067377 4.047017 -2.321579 2.496565 -1.590740 -18.346110 -21.380188 -0.000000 0.000001 -0.000002 11.437280 5.992929 10.197097 5.689998 -5.052553 38.324116 8.307801 -5.597854 52.717886 -0.000000 0.000001 -0.000003 -0.236732 1.934459 19.766677 3.231283 -6.986592 45.607792 4.899238 -8.084909 56.975519 0.000001 0.000000 0.000001 1.165157 -1.896584 32.359958 1.164903 -8.410858 49.973489 1.445678 -8.793860 52.663528 -0.000000 0.000003 0.000002 -12.819112 -7.974301 34.566051 -1.181586 -10.942498 57.082186 -0.588081 -12.253504 65.544415 -0.000001 -0.000001 0.000000 -6.973974 11.749215 13.780907 32.010566 2.950064 9.513589 -18.901910 0.430091 -2.829370 0.005649 -0.000007 0.000005 0.000000 0.000002 0.000000 5.489903 -1.957114 3.775937 24.634262 1.124470 2.071801 -17.199898 0.592356 -1.547674 -2.205515 0.000001 0.000002 -0.000000 0.000000 -0.000000 
0.611505 100.161377 -0.076949 -9.046055 -4.425951 -5.619478 2.648096 1.661635 0.022544 4.941670 2.432173 0.224533 4.984167 2.329288 0.259255 -0.570517 -0.177130 4.132930 -1.058651 5.670645 1.229720 0.000000 -0.000000 0.000000 -0.540911 13.999940 -6.835304 15.414817 -27.251343 -54.374637 -1.857496 -62.129743 -2.106894 6.282728 8.947646 4.607233 5.476559 27.895664 14.958891 -2.690568 -8.505215 -8.371491 -8.743352 -16.195552 6.367344 -0.000000 -0.000002 -0.000000 5.507027 4.268186 -12.536755 8.561224 7.765434 -52.735447 9.084863 7.820132 -55.270987 -0.000001 -0.000000 -0.000001 1.198361 2.658553 -26.746970 3.562777 9.048709 -46.428139 8.063863 11.345365 -75.266765 0.000002 -0.000001 -0.000001 1.296091 3.360733 -45.418063 0.347846 10.271509 -47.840171 2.077265 12.399001 -61.008698 0.000000 0.000000 -0.000002 -14.434003 7.537889 -37.755278 1.612136 14.602654 -67.244613 2.198485 15.351815 -73.019080 0.000003 0.000001 -0.000000 -0.010847 2.458127 21.619886 -24.249253 20.291809 52.587594 2.032385 115.871250 -2.272088 11.149890 10.968830 17.257108 18.797761 -27.814125 2.061859 4.046997 -2.321548 2.496580 -1.590732 -18.346114 -21.380205 -0.000001 0.000004 0.000003 11.446005 5.981428 10.268031 5.703510 -5.057986 38.396994 8.322163 -5.600015 52.791355 -0.000002 -0.000000 0.000002 -0.237477 1.925731 19.839355 3.240542 -6.994881 45.680903 4.910131 -8.091098 57.049247 0.000000 0.000000 -0.000001 1.158681 -1.886719 32.439895 1.171027 -8.420205 50.037727 1.452560 -8.803297 52.730819 -0.000003 0.000001 0.000000 -12.828945 -7.969307 34.653767 -1.177454 -10.952330 57.136260 -0.580718 -12.265960 65.617354 0.000002 -0.000001 0.000000 -6.563565 11.831055 13.624058 29.481579 3.913110 9.569720 -18.511828 0.224081 -1.933431 0.005647 -0.000004 0.000005 -0.000000 -0.000001 -0.000001 4.984098 -1.594824 3.716948 22.089981 2.719088 1.817780 -15.847178 0.481977 -1.551893 -2.089595 -0.000003 0.000003 -0.000000 0.000001 0.000000 
0.971894 100.518242 -0.065459 -7.547847 -6.272398 -5.908296 1.920501 1.767129 0.806564 4.600727 2.737580 0.117125 4.660760 2.616893 0.186797 -1.391958 -0.290067 4.534296 -3.488325 5.518324 2.180523 -0.000000 -0.000000 -0.000000 -0.753329 15.235973 -5.268009 19.159374 -29.911833 -52.072874 -1.897040 -62.622972 -2.141774 9.192954 10.509717 2.279071 5.476850 27.905421 14.961895 -2.690556 -8.505221 -8.371461 -8.742731 -16.186551 6.370356 -0.000000 -0.000001 0.000001 5.517334 4.283329 -12.616124 8.578725 7.770240 -52.816436 9.102468 7.824202 -55.351641 -0.000000 0.000001 -0.000000 1.205026 2.673505 -26.825966 3.574704 9.060209 -46.509080 8.079664 11.350497 -75.348284 0.000002 0.000003 0.000002 1.300135 3.371254 -45.498236 0.355383 10.286694 -47.919982 2.088366 12.411840 -61.089670 0.000001 0.000002 -0.000003 -14.432132 7.560398 -37.833347 1.624203 14.616584 -67.326104 2.211907 15.365018 -73.101452 -0.000003 -0.000002 -0.000001 0.007570 2.293578 22.108573 -24.861007 20.852737 52.763020 1.960383 116.688987 -2.207765 9.900091 11.277735 17.045369 18.791587 -27.814303 2.052796 4.047018 -2.321564 2.496569 -1.590732 -18.346117 -21.380186 -0.000001 0.000005 -0.000001 11.455204 5.962725 10.384883 5.725532 -5.066830 38.515727 8.345428 -5.603420 52.910132 -0.000001 0.000002 -0.000003 -0.238694 1.911521 19.957791 3.255669 -7.008353 45.799895 4.927899 -8.101204 57.169694 -0.000000 -0.000000 -0.000000 1.149199 -1.872671 32.569921 1.180997 -8.435430 50.142444 1.463891 -8.818814 52.841509 -0.000001 0.000001 0.000001 -12.845103 -7.961204 34.796423 -1.170691 -10.968404 57.224575 -0.568620 -12.286280 65.736548 -0.000001 0.000002 0.000001 -6.091001 11.906316 13.437414 26.982070 4.094398 9.619355 -18.076792 0.060707 -1.138310 0.005652 -0.000003 0.000004 0.000000 0.000000 -0.000000 4.374045 -1.183830 3.718617 19.692892 4.263428 1.535661 -14.542217 0.359595 -1.438098 -1.956831 0.000004 0.000003 -0.000000 0.000000 0.000000 
